<svg xmlns="http://www.w3.org/2000/svg" xmlns:xlink="http://www.w3.org/1999/xlink" width="100" zoomAndPan="magnify" viewBox="0 0 75 74.999997" height="100" preserveAspectRatio="xMidYMid meet" version="1.0"><defs><clipPath id="dfb357ab55"><path d="M 0.625 0.625 L 74.125 0.625 L 74.125 74.125 L 0.625 74.125 Z M 0.625 0.625 " clip-rule="nonzero"/></clipPath><clipPath id="ca10d5c8e5"><path d="M 26.101562 47.101562 L 29.851562 47.101562 L 29.851562 50.851562 L 26.101562 50.851562 Z M 26.101562 47.101562 " clip-rule="nonzero"/></clipPath></defs><g clip-path="url(#dfb357ab55)"><path fill="#fbab16" d="M 74.125 37.375 C 74.125 38.578125 74.0625 39.777344 73.945312 40.976562 C 73.828125 42.171875 73.652344 43.363281 73.417969 44.542969 C 73.183594 45.722656 72.890625 46.890625 72.539062 48.042969 C 72.191406 49.191406 71.785156 50.324219 71.324219 51.4375 C 70.863281 52.546875 70.351562 53.636719 69.785156 54.695312 C 69.214844 55.757812 68.597656 56.789062 67.929688 57.789062 C 67.261719 58.792969 66.542969 59.757812 65.78125 60.6875 C 65.019531 61.617188 64.210938 62.507812 63.359375 63.359375 C 62.507812 64.210938 61.617188 65.019531 60.6875 65.78125 C 59.757812 66.542969 58.792969 67.261719 57.789062 67.929688 C 56.789062 68.597656 55.757812 69.214844 54.695312 69.785156 C 53.636719 70.351562 52.546875 70.863281 51.4375 71.324219 C 50.324219 71.785156 49.191406 72.191406 48.042969 72.539062 C 46.890625 72.890625 45.722656 73.183594 44.542969 73.417969 C 43.363281 73.652344 42.171875 73.828125 40.976562 73.945312 C 39.777344 74.0625 38.578125 74.125 37.375 74.125 C 36.167969 74.125 34.96875 74.0625 33.769531 73.945312 C 32.574219 73.828125 31.382812 73.652344 30.203125 73.417969 C 29.023438 73.183594 27.855469 72.890625 26.707031 72.539062 C 25.554688 72.191406 24.421875 71.785156 23.308594 71.324219 C 22.199219 70.863281 21.109375 70.351562 20.050781 69.785156 C 18.988281 69.214844 17.957031 68.597656 16.957031 67.929688 C 15.957031 67.261719 14.988281 66.542969 14.058594 65.78125 C 13.128906 65.019531 12.238281 64.210938 11.386719 63.359375 C 10.535156 62.507812 9.730469 61.617188 8.964844 60.6875 C 8.203125 59.757812 7.484375 58.792969 6.816406 57.789062 C 6.148438 56.789062 5.53125 55.757812 4.960938 54.695312 C 4.394531 53.636719 3.882812 52.546875 3.421875 51.4375 C 2.960938 50.324219 2.554688 49.191406 2.207031 48.042969 C 1.855469 46.890625 1.5625 45.722656 1.328125 44.542969 C 1.09375 43.363281 0.917969 42.171875 0.800781 40.976562 C 0.683594 39.777344 0.625 38.578125 0.625 37.375 C 0.625 36.167969 0.683594 34.96875 0.800781 33.769531 C 0.917969 32.574219 1.09375 31.382812 1.328125 30.203125 C 1.5625 29.023438 1.855469 27.855469 2.207031 26.707031 C 2.554688 25.554688 2.960938 24.421875 3.421875 23.308594 C 3.882812 22.199219 4.394531 21.109375 4.960938 20.050781 C 5.53125 18.988281 6.148438 17.957031 6.816406 16.957031 C 7.484375 15.957031 8.203125 14.988281 8.964844 14.058594 C 9.730469 13.128906 10.535156 12.238281 11.386719 11.386719 C 12.238281 10.535156 13.128906 9.730469 14.058594 8.964844 C 14.988281 8.203125 15.957031 7.484375 16.957031 6.816406 C 17.957031 6.148438 18.988281 5.53125 20.050781 4.960938 C 21.109375 4.394531 22.199219 3.882812 23.308594 3.421875 C 24.421875 2.960938 25.554688 2.554688 26.707031 2.207031 C 27.855469 1.855469 29.023438 1.5625 30.203125 1.328125 C 31.382812 1.09375 32.574219 0.917969 33.769531 0.800781 C 34.96875 0.683594 36.167969 0.625 37.375 0.625 C 38.578125 0.625 39.777344 0.683594 40.976562 0.800781 C 42.171875 0.917969 43.363281 1.09375 44.542969 1.328125 C 45.722656 1.5625 46.890625 1.855469 48.042969 2.207031 C 49.191406 2.554688 50.324219 2.960938 51.4375 3.421875 C 52.546875 3.882812 53.636719 4.394531 54.695312 4.960938 C 55.757812 5.53125 56.789062 6.148438 57.789062 6.816406 C 58.792969 7.484375 59.757812 8.203125 60.6875 8.964844 C 61.617188 9.730469 62.507812 10.535156 63.359375 11.386719 C 64.210938 12.238281 65.019531 13.128906 65.78125 14.058594 C 66.542969 14.988281 67.261719 15.957031 67.929688 16.957031 C 68.597656 17.957031 69.214844 18.988281 69.785156 20.050781 C 70.351562 21.109375 70.863281 22.199219 71.324219 23.308594 C 71.785156 24.421875 72.191406 25.554688 72.539062 26.707031 C 72.890625 27.855469 73.183594 29.023438 73.417969 30.203125 C 73.652344 31.382812 73.828125 32.574219 73.945312 33.769531 C 74.0625 34.96875 74.125 36.167969 74.125 37.375 Z M 74.125 37.375 " fill-opacity="1" fill-rule="nonzero"/></g><path fill="#f9cf00" d="M 68.875 34.257812 C 68.875 35.289062 68.824219 36.316406 68.722656 37.34375 C 68.621094 38.371094 68.46875 39.390625 68.269531 40.402344 C 68.066406 41.414062 67.816406 42.414062 67.515625 43.398438 C 67.21875 44.386719 66.871094 45.355469 66.476562 46.308594 C 66.082031 47.261719 65.640625 48.195312 65.152344 49.105469 C 64.667969 50.015625 64.136719 50.898438 63.5625 51.757812 C 62.992188 52.613281 62.378906 53.441406 61.722656 54.238281 C 61.070312 55.035156 60.375 55.800781 59.648438 56.53125 C 58.917969 57.257812 58.152344 57.953125 57.355469 58.605469 C 56.558594 59.261719 55.730469 59.875 54.875 60.445312 C 54.015625 61.019531 53.132812 61.550781 52.222656 62.035156 C 51.3125 62.523438 50.378906 62.964844 49.425781 63.359375 C 48.472656 63.753906 47.503906 64.101562 46.515625 64.398438 C 45.53125 64.699219 44.53125 64.949219 43.519531 65.152344 C 42.507812 65.351562 41.488281 65.503906 40.460938 65.605469 C 39.433594 65.707031 38.40625 65.757812 37.375 65.757812 C 36.339844 65.757812 35.3125 65.707031 34.285156 65.605469 C 33.257812 65.503906 32.238281 65.351562 31.226562 65.152344 C 30.214844 64.949219 29.214844 64.699219 28.230469 64.398438 C 27.242188 64.101562 26.273438 63.753906 25.320312 63.359375 C 24.367188 62.964844 23.433594 62.523438 22.523438 62.035156 C 21.613281 61.550781 20.730469 61.019531 19.871094 60.445312 C 19.015625 59.875 18.1875 59.261719 17.390625 58.605469 C 16.59375 57.953125 15.828125 57.257812 15.097656 56.53125 C 14.371094 55.800781 13.679688 55.035156 13.023438 54.238281 C 12.367188 53.441406 11.753906 52.613281 11.183594 51.757812 C 10.609375 50.898438 10.078125 50.015625 9.59375 49.105469 C 9.105469 48.195312 8.664062 47.261719 8.269531 46.308594 C 7.875 45.355469 7.527344 44.386719 7.230469 43.398438 C 6.929688 42.414062 6.679688 41.414062 6.476562 40.402344 C 6.277344 39.390625 6.125 38.371094 6.023438 37.34375 C 5.921875 36.316406 5.875 35.289062 5.875 34.257812 C 5.875 33.222656 5.921875 32.195312 6.023438 31.167969 C 6.125 30.140625 6.277344 29.121094 6.476562 28.109375 C 6.679688 27.097656 6.929688 26.097656 7.230469 25.113281 C 7.527344 24.125 7.875 23.15625 8.269531 22.203125 C 8.664062 21.25 9.105469 20.316406 9.59375 19.40625 C 10.078125 18.496094 10.609375 17.613281 11.183594 16.753906 C 11.753906 15.898438 12.367188 15.070312 13.023438 14.273438 C 13.679688 13.476562 14.371094 12.710938 15.097656 11.980469 C 15.828125 11.253906 16.59375 10.5625 17.390625 9.90625 C 18.1875 9.25 19.015625 8.636719 19.871094 8.066406 C 20.730469 7.492188 21.613281 6.960938 22.523438 6.476562 C 23.433594 5.988281 24.367188 5.546875 25.320312 5.152344 C 26.273438 4.757812 27.242188 4.410156 28.230469 4.113281 C 29.214844 3.8125 30.214844 3.5625 31.226562 3.359375 C 32.238281 3.160156 33.257812 3.007812 34.285156 2.90625 C 35.3125 2.804688 36.339844 2.757812 37.375 2.757812 C 38.40625 2.757812 39.433594 2.804688 40.460938 2.90625 C 41.488281 3.007812 42.507812 3.160156 43.519531 3.359375 C 44.53125 3.5625 45.53125 3.8125 46.515625 4.113281 C 47.503906 4.410156 48.472656 4.757812 49.425781 5.152344 C 50.378906 5.546875 51.3125 5.988281 52.222656 6.476562 C 53.132812 6.960938 54.015625 7.492188 54.875 8.066406 C 55.730469 8.636719 56.558594 9.25 57.355469 9.90625 C 58.152344 10.5625 58.917969 11.253906 59.648438 11.980469 C 60.375 12.710938 61.070312 13.476562 61.722656 14.273438 C 62.378906 15.070312 62.992188 15.898438 63.5625 16.753906 C 64.136719 17.613281 64.667969 18.496094 65.152344 19.40625 C 65.640625 20.316406 66.082031 21.25 66.476562 22.203125 C 66.871094 23.15625 67.21875 24.125 67.515625 25.113281 C 67.816406 26.097656 68.066406 27.097656 68.269531 28.109375 C 68.46875 29.121094 68.621094 30.140625 68.722656 31.167969 C 68.824219 32.195312 68.875 33.222656 68.875 34.257812 Z M 68.875 34.257812 " fill-opacity="1" fill-rule="nonzero"/><path fill="#231f20" d="M 13.585938 26.191406 C 13.585938 26.191406 13.574219 26.109375 13.550781 25.960938 C 13.550781 25.917969 13.539062 25.882812 13.539062 25.828125 C 13.535156 25.773438 13.53125 25.707031 13.527344 25.640625 C 13.523438 25.570312 13.519531 25.496094 13.519531 25.417969 C 13.519531 25.34375 13.519531 25.269531 13.519531 25.183594 C 13.527344 24.78125 13.570312 24.382812 13.652344 23.988281 C 13.757812 23.46875 13.921875 22.964844 14.136719 22.480469 C 14.398438 21.898438 14.730469 21.359375 15.128906 20.863281 C 15.351562 20.589844 15.585938 20.335938 15.84375 20.097656 C 16.6875 19.304688 17.660156 18.734375 18.765625 18.382812 L 19.050781 18.300781 C 19.144531 18.273438 19.242188 18.25 19.339844 18.226562 C 19.4375 18.203125 19.535156 18.179688 19.632812 18.164062 C 19.730469 18.144531 19.828125 18.125 19.929688 18.113281 C 20.328125 18.050781 20.726562 18.019531 21.132812 18.015625 L 21.414062 18.023438 L 21.476562 18.023438 C 21.496094 18.023438 21.511719 18.023438 21.542969 18.023438 L 21.871094 18.046875 C 21.925781 18.046875 21.980469 18.054688 22.03125 18.0625 L 22.328125 18.101562 C 22.425781 18.117188 22.527344 18.136719 22.625 18.15625 C 22.722656 18.171875 22.820312 18.195312 22.917969 18.21875 C 23.011719 18.242188 23.109375 18.265625 23.207031 18.292969 L 23.492188 18.375 C 24.234375 18.613281 24.925781 18.957031 25.566406 19.410156 C 25.867188 19.617188 26.152344 19.847656 26.417969 20.101562 C 27.144531 20.78125 27.714844 21.574219 28.125 22.480469 C 28.339844 22.964844 28.5 23.46875 28.605469 23.988281 C 28.6875 24.382812 28.734375 24.78125 28.738281 25.183594 C 28.738281 25.265625 28.738281 25.347656 28.738281 25.417969 C 28.738281 25.488281 28.734375 25.5625 28.730469 25.625 C 28.726562 25.753906 28.71875 25.863281 28.707031 25.949219 C 28.691406 26.125 28.675781 26.21875 28.675781 26.21875 C 28.644531 26.453125 28.539062 26.648438 28.363281 26.808594 C 28.191406 26.96875 27.984375 27.054688 27.746094 27.070312 C 27.511719 27.082031 27.296875 27.015625 27.105469 26.875 C 26.914062 26.734375 26.789062 26.546875 26.734375 26.320312 L 26.710938 26.21875 C 26.710938 26.21875 26.691406 26.148438 26.667969 26.019531 C 26.65625 25.957031 26.636719 25.878906 26.613281 25.789062 L 26.574219 25.644531 C 26.558594 25.59375 26.542969 25.539062 26.527344 25.480469 C 26.511719 25.421875 26.492188 25.363281 26.46875 25.300781 C 26.449219 25.242188 26.429688 25.175781 26.40625 25.109375 C 26.382812 25.042969 26.351562 24.976562 26.324219 24.90625 C 26.292969 24.835938 26.261719 24.765625 26.230469 24.691406 C 26.085938 24.367188 25.914062 24.058594 25.714844 23.765625 L 25.542969 23.527344 C 25.480469 23.449219 25.421875 23.367188 25.351562 23.289062 C 25.285156 23.214844 25.21875 23.132812 25.144531 23.058594 C 25.070312 22.980469 24.996094 22.90625 24.921875 22.828125 C 24.761719 22.675781 24.59375 22.535156 24.417969 22.402344 C 24.332031 22.332031 24.234375 22.273438 24.144531 22.207031 C 24.097656 22.175781 24.046875 22.144531 24 22.113281 C 23.949219 22.082031 23.902344 22.054688 23.851562 22.027344 C 23.648438 21.910156 23.441406 21.804688 23.226562 21.714844 L 23.0625 21.648438 L 22.898438 21.589844 C 22.84375 21.566406 22.789062 21.550781 22.730469 21.535156 C 22.671875 21.515625 22.617188 21.496094 22.558594 21.484375 C 22.328125 21.421875 22.09375 21.375 21.855469 21.339844 L 21.675781 21.320312 C 21.644531 21.3125 21.617188 21.3125 21.59375 21.3125 L 21.519531 21.304688 L 21.441406 21.300781 C 21.433594 21.300781 21.414062 21.300781 21.390625 21.300781 L 21.332031 21.300781 L 21.132812 21.296875 C 20.886719 21.296875 20.648438 21.3125 20.40625 21.34375 C 20.167969 21.375 19.933594 21.421875 19.703125 21.484375 C 19.644531 21.496094 19.589844 21.519531 19.53125 21.535156 C 19.476562 21.550781 19.417969 21.570312 19.363281 21.59375 L 19.199219 21.648438 L 19.035156 21.714844 C 18.820312 21.808594 18.613281 21.910156 18.410156 22.027344 C 18.359375 22.054688 18.3125 22.085938 18.261719 22.117188 C 18.214844 22.148438 18.164062 22.175781 18.117188 22.207031 C 18.027344 22.273438 17.929688 22.335938 17.84375 22.40625 C 17.667969 22.539062 17.5 22.679688 17.339844 22.832031 C 17.261719 22.90625 17.183594 22.980469 17.117188 23.058594 C 17.046875 23.136719 16.976562 23.214844 16.910156 23.292969 C 16.839844 23.371094 16.78125 23.453125 16.71875 23.527344 L 16.546875 23.765625 C 16.347656 24.0625 16.175781 24.371094 16.03125 24.695312 C 16 24.765625 15.964844 24.839844 15.9375 24.910156 C 15.910156 24.980469 15.886719 25.046875 15.855469 25.113281 C 15.828125 25.179688 15.8125 25.242188 15.792969 25.304688 C 15.769531 25.367188 15.75 25.425781 15.734375 25.484375 C 15.71875 25.539062 15.703125 25.59375 15.6875 25.648438 C 15.671875 25.699219 15.664062 25.738281 15.652344 25.777344 L 15.621094 25.894531 C 15.609375 25.929688 15.601562 25.976562 15.597656 26.011719 C 15.566406 26.164062 15.554688 26.242188 15.554688 26.242188 C 15.507812 26.484375 15.390625 26.679688 15.199219 26.835938 C 15.007812 26.988281 14.792969 27.0625 14.546875 27.058594 C 14.304688 27.050781 14.089844 26.964844 13.90625 26.804688 C 13.726562 26.640625 13.617188 26.4375 13.585938 26.195312 Z M 13.585938 26.191406 " fill-opacity="1" fill-rule="nonzero"/><path fill="#231f20" d="M 46.070312 26.191406 C 46.070312 26.191406 46.058594 26.109375 46.039062 25.960938 C 46.03125 25.917969 46.027344 25.882812 46.023438 25.828125 C 46.019531 25.773438 46.015625 25.707031 46.011719 25.640625 C 46.011719 25.570312 46.007812 25.496094 46.003906 25.417969 C 46.003906 25.34375 46.003906 25.269531 46.003906 25.183594 C 46.011719 24.78125 46.058594 24.382812 46.136719 23.988281 C 46.246094 23.46875 46.40625 22.964844 46.621094 22.480469 C 47.03125 21.574219 47.601562 20.78125 48.328125 20.101562 C 48.59375 19.847656 48.878906 19.617188 49.179688 19.410156 C 49.816406 18.960938 50.507812 18.621094 51.25 18.386719 L 51.535156 18.304688 C 51.632812 18.277344 51.726562 18.253906 51.824219 18.230469 C 51.921875 18.203125 52.019531 18.183594 52.117188 18.167969 C 52.214844 18.148438 52.3125 18.128906 52.414062 18.113281 C 52.8125 18.054688 53.210938 18.019531 53.617188 18.015625 L 53.898438 18.023438 L 53.957031 18.023438 C 53.976562 18.023438 53.996094 18.023438 54.027344 18.023438 L 54.355469 18.046875 C 54.410156 18.046875 54.464844 18.054688 54.511719 18.0625 L 54.8125 18.101562 C 54.910156 18.117188 55.011719 18.136719 55.109375 18.15625 C 55.207031 18.171875 55.304688 18.195312 55.402344 18.21875 C 55.496094 18.242188 55.59375 18.265625 55.691406 18.292969 L 55.976562 18.375 C 57.078125 18.722656 58.054688 19.296875 58.898438 20.089844 C 59.152344 20.328125 59.390625 20.582031 59.609375 20.855469 C 60.011719 21.351562 60.339844 21.890625 60.601562 22.472656 C 60.820312 22.957031 60.980469 23.457031 61.085938 23.980469 C 61.167969 24.375 61.210938 24.773438 61.21875 25.175781 C 61.21875 25.257812 61.21875 25.339844 61.21875 25.410156 C 61.21875 25.480469 61.214844 25.554688 61.210938 25.617188 C 61.207031 25.746094 61.199219 25.855469 61.1875 25.941406 C 61.167969 26.117188 61.15625 26.207031 61.15625 26.207031 C 61.125 26.445312 61.019531 26.640625 60.84375 26.800781 C 60.671875 26.960938 60.464844 27.046875 60.226562 27.058594 C 59.988281 27.074219 59.777344 27.007812 59.585938 26.867188 C 59.394531 26.726562 59.269531 26.539062 59.214844 26.308594 L 59.195312 26.21875 C 59.195312 26.21875 59.175781 26.148438 59.152344 26.019531 C 59.140625 25.957031 59.121094 25.878906 59.097656 25.789062 L 59.058594 25.644531 C 59.042969 25.59375 59.027344 25.539062 59.011719 25.480469 C 58.996094 25.421875 58.976562 25.363281 58.953125 25.300781 C 58.933594 25.242188 58.914062 25.175781 58.890625 25.109375 C 58.867188 25.042969 58.835938 24.976562 58.808594 24.90625 C 58.777344 24.835938 58.746094 24.765625 58.714844 24.691406 C 58.570312 24.367188 58.398438 24.058594 58.199219 23.765625 L 58.027344 23.527344 C 57.964844 23.449219 57.90625 23.367188 57.835938 23.289062 C 57.769531 23.214844 57.703125 23.132812 57.628906 23.058594 C 57.558594 22.980469 57.484375 22.90625 57.40625 22.828125 C 57.246094 22.675781 57.078125 22.535156 56.902344 22.402344 C 56.816406 22.332031 56.71875 22.273438 56.628906 22.207031 C 56.582031 22.175781 56.53125 22.144531 56.484375 22.113281 C 56.4375 22.082031 56.386719 22.054688 56.335938 22.027344 C 56.132812 21.910156 55.925781 21.804688 55.710938 21.714844 L 55.546875 21.648438 L 55.382812 21.589844 C 55.328125 21.566406 55.269531 21.550781 55.214844 21.535156 C 55.15625 21.515625 55.101562 21.496094 55.042969 21.484375 C 54.8125 21.421875 54.578125 21.375 54.339844 21.339844 L 54.160156 21.320312 C 54.128906 21.3125 54.101562 21.3125 54.078125 21.3125 L 54.003906 21.304688 L 53.925781 21.300781 C 53.917969 21.300781 53.898438 21.300781 53.875 21.300781 L 53.816406 21.300781 L 53.617188 21.296875 C 53.371094 21.296875 53.132812 21.3125 52.890625 21.34375 C 52.652344 21.375 52.417969 21.421875 52.1875 21.484375 C 52.128906 21.496094 52.074219 21.519531 52.015625 21.535156 C 51.960938 21.550781 51.902344 21.570312 51.847656 21.59375 L 51.683594 21.648438 L 51.519531 21.714844 C 51.304688 21.808594 51.097656 21.910156 50.894531 22.027344 C 50.84375 22.054688 50.792969 22.082031 50.746094 22.117188 C 50.695312 22.144531 50.648438 22.175781 50.601562 22.207031 C 50.507812 22.273438 50.414062 22.335938 50.324219 22.402344 C 50.148438 22.535156 49.980469 22.679688 49.820312 22.832031 C 49.746094 22.90625 49.667969 22.980469 49.597656 23.058594 C 49.527344 23.136719 49.457031 23.214844 49.390625 23.289062 C 49.320312 23.367188 49.261719 23.449219 49.199219 23.527344 L 49.03125 23.765625 C 48.832031 24.058594 48.65625 24.367188 48.511719 24.691406 C 48.480469 24.765625 48.445312 24.835938 48.417969 24.90625 C 48.390625 24.976562 48.367188 25.046875 48.335938 25.109375 C 48.308594 25.175781 48.292969 25.242188 48.273438 25.304688 C 48.25 25.363281 48.230469 25.421875 48.214844 25.480469 C 48.199219 25.539062 48.183594 25.589844 48.167969 25.644531 C 48.152344 25.699219 48.144531 25.734375 48.132812 25.777344 C 48.121094 25.816406 48.109375 25.859375 48.097656 25.890625 C 48.089844 25.921875 48.082031 25.972656 48.078125 26.011719 C 48.046875 26.164062 48.03125 26.242188 48.03125 26.242188 C 47.988281 26.484375 47.871094 26.679688 47.679688 26.832031 C 47.488281 26.988281 47.273438 27.0625 47.027344 27.054688 C 46.78125 27.050781 46.570312 26.964844 46.386719 26.800781 C 46.203125 26.636719 46.097656 26.433594 46.0625 26.191406 Z M 46.070312 26.191406 " fill-opacity="1" fill-rule="nonzero"/><path fill="#231f20" d="M 57.554688 37.375 C 57.929688 37.371094 58.289062 37.449219 58.632812 37.605469 C 58.972656 37.757812 59.269531 37.976562 59.519531 38.257812 C 59.769531 38.539062 59.949219 38.863281 60.0625 39.21875 C 60.171875 39.578125 60.203125 39.945312 60.160156 40.320312 C 58.707031 51.613281 49.058594 60.34375 37.375 60.34375 C 25.6875 60.34375 16.039062 51.613281 14.589844 40.320312 C 14.546875 39.945312 14.578125 39.578125 14.6875 39.21875 C 14.800781 38.863281 14.980469 38.539062 15.230469 38.257812 C 15.480469 37.976562 15.777344 37.757812 16.117188 37.605469 C 16.460938 37.449219 16.820312 37.371094 17.199219 37.375 Z M 57.554688 37.375 " fill-opacity="1" fill-rule="nonzero"/><path fill="#ffffff" d="M 14.570312 37.375 L 60.179688 37.375 L 60.179688 43.9375 L 14.570312 43.9375 Z M 14.570312 37.375 " fill-opacity="1" fill-rule="nonzero"/><path fill="#2eb0da" d="M 14.570312 37.375 L 60.179688 37.375 L 60.179688 41.3125 L 14.570312 41.3125 Z M 14.570312 37.375 " fill-opacity="0.25" fill-rule="nonzero"/><path fill="#eb1024" d="M 48.039062 57.71875 C 47.300781 57.085938 46.511719 56.527344 45.675781 56.035156 C 44.839844 55.542969 43.96875 55.128906 43.058594 54.792969 C 42.148438 54.457031 41.214844 54.203125 40.261719 54.035156 C 39.304688 53.863281 38.34375 53.777344 37.375 53.777344 C 36.402344 53.777344 35.441406 53.863281 34.484375 54.035156 C 33.53125 54.203125 32.597656 54.457031 31.6875 54.792969 C 30.777344 55.128906 29.90625 55.542969 29.070312 56.035156 C 28.234375 56.527344 27.445312 57.085938 26.710938 57.71875 C 28.355469 58.578125 30.078125 59.230469 31.882812 59.671875 C 33.6875 60.117188 35.515625 60.335938 37.375 60.335938 C 39.230469 60.335938 41.058594 60.117188 42.863281 59.671875 C 44.667969 59.230469 46.390625 58.578125 48.039062 57.71875 Z M 48.039062 57.71875 " fill-opacity="1" fill-rule="nonzero"/><path fill="#231f20" d="M 37.375 61.984375 C 36.632812 61.984375 35.894531 61.949219 35.15625 61.882812 C 34.421875 61.816406 33.6875 61.714844 32.960938 61.582031 C 32.234375 61.449219 31.511719 61.285156 30.800781 61.085938 C 30.085938 60.890625 29.382812 60.660156 28.691406 60.398438 C 28 60.140625 27.320312 59.847656 26.652344 59.523438 C 25.988281 59.203125 25.335938 58.851562 24.703125 58.46875 C 24.066406 58.089844 23.453125 57.679688 22.855469 57.242188 C 22.257812 56.808594 21.679688 56.34375 21.125 55.855469 C 20.570312 55.367188 20.035156 54.855469 19.527344 54.320312 C 19.015625 53.78125 18.53125 53.222656 18.074219 52.644531 C 17.613281 52.0625 17.183594 51.464844 16.777344 50.84375 C 16.371094 50.226562 15.996094 49.589844 15.648438 48.9375 C 15.300781 48.28125 14.984375 47.613281 14.695312 46.933594 C 14.40625 46.25 14.152344 45.558594 13.925781 44.851562 C 13.703125 44.148438 13.507812 43.433594 13.347656 42.710938 C 13.1875 41.988281 13.058594 41.261719 12.964844 40.527344 C 12.925781 40.226562 12.921875 39.925781 12.949219 39.625 C 12.972656 39.324219 13.03125 39.03125 13.121094 38.742188 C 13.210938 38.453125 13.328125 38.175781 13.476562 37.910156 C 13.625 37.648438 13.800781 37.402344 14 37.175781 C 14.199219 36.949219 14.421875 36.746094 14.664062 36.566406 C 14.90625 36.386719 15.167969 36.234375 15.441406 36.109375 C 15.71875 35.984375 16.003906 35.890625 16.300781 35.828125 C 16.597656 35.765625 16.894531 35.734375 17.199219 35.734375 L 57.554688 35.734375 C 57.855469 35.734375 58.15625 35.765625 58.449219 35.828125 C 58.746094 35.890625 59.03125 35.984375 59.308594 36.109375 C 59.582031 36.234375 59.84375 36.386719 60.085938 36.566406 C 60.328125 36.746094 60.550781 36.949219 60.75 37.175781 C 60.953125 37.402344 61.125 37.648438 61.273438 37.910156 C 61.421875 38.175781 61.539062 38.453125 61.628906 38.742188 C 61.71875 39.03125 61.777344 39.324219 61.800781 39.625 C 61.828125 39.925781 61.824219 40.226562 61.785156 40.527344 C 61.691406 41.261719 61.5625 41.988281 61.402344 42.710938 C 61.242188 43.433594 61.046875 44.148438 60.824219 44.855469 C 60.597656 45.558594 60.34375 46.253906 60.054688 46.933594 C 59.765625 47.617188 59.449219 48.285156 59.101562 48.9375 C 58.753906 49.589844 58.378906 50.226562 57.972656 50.84375 C 57.566406 51.464844 57.136719 52.0625 56.675781 52.644531 C 56.214844 53.226562 55.730469 53.78125 55.222656 54.320312 C 54.710938 54.855469 54.179688 55.367188 53.625 55.855469 C 53.066406 56.347656 52.492188 56.808594 51.894531 57.246094 C 51.296875 57.679688 50.679688 58.089844 50.046875 58.472656 C 49.410156 58.851562 48.761719 59.203125 48.09375 59.527344 C 47.429688 59.847656 46.75 60.140625 46.058594 60.402344 C 45.363281 60.660156 44.660156 60.890625 43.949219 61.089844 C 43.234375 61.285156 42.515625 61.453125 41.785156 61.585938 C 41.058594 61.714844 40.324219 61.816406 39.589844 61.882812 C 38.851562 61.949219 38.113281 61.984375 37.375 61.984375 Z M 17.199219 39.015625 C 16.898438 39.011719 16.652344 39.125 16.453125 39.351562 C 16.257812 39.566406 16.179688 39.820312 16.21875 40.109375 C 16.382812 41.386719 16.660156 42.636719 17.050781 43.863281 C 17.441406 45.085938 17.9375 46.269531 18.539062 47.402344 C 19.144531 48.539062 19.84375 49.609375 20.640625 50.621094 C 21.4375 51.628906 22.320312 52.558594 23.285156 53.40625 C 24.25 54.257812 25.285156 55.011719 26.386719 55.675781 C 27.488281 56.335938 28.640625 56.894531 29.84375 57.347656 C 31.046875 57.800781 32.28125 58.144531 33.546875 58.375 C 34.8125 58.605469 36.085938 58.722656 37.375 58.722656 C 38.660156 58.722656 39.933594 58.605469 41.199219 58.375 C 42.464844 58.144531 43.699219 57.800781 44.902344 57.347656 C 46.105469 56.894531 47.257812 56.335938 48.359375 55.675781 C 49.460938 55.011719 50.496094 54.257812 51.460938 53.40625 C 52.425781 52.558594 53.308594 51.628906 54.105469 50.621094 C 54.902344 49.609375 55.601562 48.539062 56.207031 47.402344 C 56.808594 46.269531 57.304688 45.085938 57.695312 43.863281 C 58.085938 42.636719 58.363281 41.386719 58.527344 40.109375 C 58.566406 39.820312 58.484375 39.566406 58.292969 39.351562 C 58.09375 39.125 57.847656 39.015625 57.554688 39.015625 Z M 17.199219 39.015625 " fill-opacity="1" fill-rule="nonzero"/><g clip-path="url(#ca10d5c8e5)"><path fill="#231e20" d="M 26.101562 47.101562 L 29.851562 47.101562 L 29.851562 50.851562 L 26.101562 50.851562 Z M 26.101562 47.101562 " fill-opacity="1" fill-rule="nonzero"/></g></svg>