<svg xmlns="http://www.w3.org/2000/svg" xmlns:xlink="http://www.w3.org/1999/xlink" width="100" zoomAndPan="magnify" viewBox="0 0 75 74.999997" height="100" preserveAspectRatio="xMidYMid meet" version="1.0"><defs><clipPath id="ec45718b29"><path d="M 26.25 26.25 L 26.65625 26.25 L 26.65625 26.597656 L 26.25 26.597656 Z M 26.25 26.25 " clip-rule="nonzero"/></clipPath><clipPath id="54ae25e9a9"><path d="M 0.789062 19 L 35 19 L 35 66.769531 L 0.789062 66.769531 Z M 0.789062 19 " clip-rule="nonzero"/></clipPath><clipPath id="579d7ec958"><path d="M 31 8.269531 L 62 8.269531 L 62 62 L 31 62 Z M 31 8.269531 " clip-rule="nonzero"/></clipPath></defs><g clip-path="url(#ec45718b29)"><path fill="#ffffff" d="M 26.25 26.25 L 26.660156 26.25 L 26.660156 26.597656 L 26.25 26.597656 Z M 26.25 26.25 " fill-opacity="1" fill-rule="nonzero"/></g><g clip-path="url(#54ae25e9a9)"><path fill="#ffffff" d="M 31.722656 66.65625 L 3.640625 66.65625 C 2.070312 66.65625 0.792969 65.378906 0.792969 63.808594 L 0.792969 21.875 C 0.792969 20.304688 2.070312 19.027344 3.640625 19.027344 L 31.722656 19.027344 C 33.292969 19.027344 34.570312 20.304688 34.570312 21.875 L 34.570312 63.808594 C 34.570312 65.378906 33.292969 66.65625 31.722656 66.65625 Z M 20.417969 43.699219 L 14.945312 43.699219 L 11.90625 50.0625 C 11.703125 50.492188 11.191406 50.671875 10.765625 50.46875 C 10.335938 50.265625 10.15625 49.753906 10.363281 49.328125 L 13.628906 42.488281 L 13.640625 42.464844 L 16.910156 35.621094 C 17.050781 35.324219 17.351562 35.132812 17.683594 35.132812 C 18.011719 35.132812 18.3125 35.324219 18.453125 35.621094 L 25.003906 49.328125 C 25.207031 49.753906 25.027344 50.265625 24.601562 50.46875 C 24.480469 50.527344 24.355469 50.550781 24.230469 50.550781 C 23.910156 50.550781 23.605469 50.371094 23.460938 50.0625 Z M 15.765625 41.984375 L 19.597656 41.984375 L 17.683594 37.972656 Z M 10.566406 33.1875 C 10.386719 33.1875 10.210938 33.132812 10.058594 33.019531 C 7.128906 30.863281 4.363281 28.824219 4.363281 26.421875 C 4.363281 24.835938 5.914062 23.59375 7.894531 23.59375 C 9.167969 23.59375 9.976562 24.011719 10.566406 24.582031 C 11.15625 24.011719 11.964844 23.59375 13.242188 23.59375 C 15.222656 23.59375 16.769531 24.835938 16.769531 26.421875 C 16.769531 28.824219 14.003906 30.863281 11.074219 33.019531 C 10.925781 33.132812 10.746094 33.1875 10.566406 33.1875 Z M 7.894531 25.308594 C 6.820312 25.308594 6.074219 25.894531 6.074219 26.421875 C 6.074219 27.847656 8.363281 29.636719 10.566406 31.269531 C 12.769531 29.636719 15.058594 27.847656 15.058594 26.421875 C 15.058594 25.894531 14.3125 25.308594 13.242188 25.308594 C 12.296875 25.308594 11.855469 25.554688 11.273438 26.410156 C 11.117188 26.644531 10.851562 26.785156 10.566406 26.785156 C 10.28125 26.785156 10.015625 26.644531 9.859375 26.410156 C 9.28125 25.554688 8.839844 25.308594 7.894531 25.308594 Z M 26.710938 63.503906 C 25.433594 63.503906 24.625 63.089844 24.035156 62.519531 C 23.445312 63.089844 22.636719 63.503906 21.363281 63.503906 C 19.382812 63.503906 17.832031 62.265625 17.832031 60.679688 C 17.832031 58.277344 20.601562 56.238281 23.527344 54.078125 C 23.832031 53.855469 24.242188 53.855469 24.542969 54.078125 C 27.472656 56.238281 30.238281 58.277344 30.238281 60.679688 C 30.238281 62.265625 28.691406 63.503906 26.710938 63.503906 Z M 24.035156 60.316406 C 24.320312 60.316406 24.585938 60.457031 24.742188 60.691406 C 25.324219 61.546875 25.765625 61.792969 26.710938 61.792969 C 27.78125 61.792969 28.527344 61.207031 28.527344 60.679688 C 28.527344 59.25 26.238281 57.460938 24.035156 55.832031 C 21.832031 57.460938 19.542969 59.25 19.542969 60.679688 C 19.542969 61.207031 20.289062 61.792969 21.363281 61.792969 C 22.308594 61.792969 22.75 61.546875 23.328125 60.691406 C 23.488281 60.457031 23.753906 60.316406 24.035156 60.316406 Z M 24.035156 60.316406 " fill-opacity="1" fill-rule="evenodd"/></g><path fill="#ffffff" d="M 15.824219 17.3125 L 17.148438 13.507812 C 17.664062 12.023438 19.289062 11.238281 20.773438 11.753906 L 47.300781 20.972656 C 48.015625 21.222656 48.59375 21.734375 48.925781 22.421875 C 49.257812 23.109375 49.304688 23.878906 49.054688 24.597656 L 36.285156 61.347656 L 36.285156 21.875 C 36.285156 19.359375 34.238281 17.3125 31.722656 17.3125 Z M 15.824219 17.3125 " fill-opacity="1" fill-rule="evenodd"/><g clip-path="url(#579d7ec958)"><path fill="#ffffff" d="M 34.570312 61.640625 C 34.503906 61.457031 34.503906 61.253906 34.570312 61.0625 Z M 34.570312 58.988281 L 31.523438 19.027344 L 31.722656 19.027344 C 33.292969 19.027344 34.570312 20.304688 34.570312 21.875 Z M 31.527344 13.675781 L 34.933594 9.449219 C 35.410156 8.855469 36.089844 8.488281 36.847656 8.40625 C 37.605469 8.324219 38.347656 8.542969 38.9375 9.019531 L 60.800781 26.644531 C 62.023438 27.628906 62.214844 29.425781 61.230469 30.648438 L 39.324219 57.820312 L 50.671875 25.160156 C 51.070312 24.011719 50.996094 22.765625 50.46875 21.675781 C 49.941406 20.582031 49.011719 19.753906 47.863281 19.355469 Z M 31.527344 13.675781 " fill-opacity="1" fill-rule="evenodd"/></g><path fill="#ffffff" d="M 36.339844 65.195312 L 36.285156 65.195312 L 36.285156 64.320312 L 62.5625 31.722656 C 64.140625 29.769531 63.828125 26.886719 61.875 25.3125 L 49.894531 15.652344 L 53.53125 13.171875 C 53.539062 13.167969 53.542969 13.164062 53.550781 13.160156 C 54.847656 12.285156 56.613281 12.621094 57.496094 13.914062 L 73.324219 37.113281 C 74.207031 38.410156 73.871094 40.1875 72.574219 41.070312 L 37.933594 64.699219 C 37.457031 65.027344 36.90625 65.195312 36.339844 65.195312 Z M 41.332031 46.824219 L 48.074219 21.382812 C 48.433594 21.652344 48.726562 22.007812 48.925781 22.421875 C 49.257812 23.105469 49.304688 23.878906 49.054688 24.597656 Z M 41.332031 46.824219 " fill-opacity="1" fill-rule="evenodd"/></svg>