<svg xmlns="http://www.w3.org/2000/svg" xmlns:xlink="http://www.w3.org/1999/xlink" width="1080" zoomAndPan="magnify" viewBox="0 0 810 809.999993" height="1080" preserveAspectRatio="xMidYMid meet" version="1.0"><defs><clipPath id="3f2d913520"><path d="M 49 82 L 744 82 L 744 776 L 49 776 Z M 49 82 " clip-rule="nonzero"/></clipPath><clipPath id="3ab2b4fd81"><path d="M 30.589844 318.914062 L 500.992188 -151.488281 L 976.699219 324.21875 L 506.292969 794.621094 Z M 30.589844 318.914062 " clip-rule="nonzero"/></clipPath><clipPath id="308b239e5c"><path d="M 30.589844 318.914062 L 500.992188 -151.488281 L 976.699219 324.21875 L 506.292969 794.621094 Z M 30.589844 318.914062 " clip-rule="nonzero"/></clipPath><clipPath id="2d8faa0eb4"><path d="M 283.5 283.5 L 287.90625 283.5 L 287.90625 287.25 L 283.5 287.25 Z M 283.5 283.5 " clip-rule="nonzero"/></clipPath></defs><g clip-path="url(#3f2d913520)"><g clip-path="url(#3ab2b4fd81)"><g clip-path="url(#308b239e5c)"><path fill="#ffffff" d="M 482.425781 763.53125 L 351.957031 554.679688 C 346.285156 545.914062 346.800781 534.054688 353.503906 525.289062 L 549.980469 283.433594 C 555.652344 276.726562 546.371094 267.445312 539.152344 272.601562 L 298.84375 470.625 C 290.589844 477.84375 278.730469 478.359375 269.964844 472.6875 L 61.628906 342.734375 C 43.578125 331.90625 47.1875 304.574219 67.300781 297.871094 L 710.359375 83.863281 C 729.953125 77.675781 748.519531 96.238281 742.332031 115.835938 L 527.289062 757.859375 C 520.585938 777.972656 493.253906 781.582031 482.425781 763.53125 Z M 482.425781 763.53125 " fill-opacity="1" fill-rule="nonzero"/></g></g></g><g clip-path="url(#2d8faa0eb4)"><path fill="#ffffff" d="M 283.5 283.5 L 287.910156 283.5 L 287.910156 287.25 L 283.5 287.25 Z M 283.5 283.5 " fill-opacity="1" fill-rule="nonzero"/></g></svg>